<svg width="24" height="24" viewBox="0 0 24 24" fill="none" xmlns="http://www.w3.org/2000/svg">
<mask id="mask0_56845_357" style="mask-type:alpha" maskUnits="userSpaceOnUse" x="0" y="0" width="24" height="24">
<rect y="6.10352e-05" width="24" height="24" fill="#D9D9D9"/>
</mask>
<g mask="url(#mask0_56845_357)">
<path d="M10.6 13.4001L8.45 11.2501C8.26667 11.0667 8.03333 10.9751 7.75 10.9751C7.46667 10.9751 7.23333 11.0667 7.05 11.2501C6.86667 11.4334 6.775 11.6667 6.775 11.9501C6.775 12.2334 6.86667 12.4667 7.05 12.6501L9.9 15.5001C10.1 15.7001 10.3333 15.8001 10.6 15.8001C10.8667 15.8001 11.1 15.7001 11.3 15.5001L16.95 9.85006C17.1333 9.66673 17.225 9.43339 17.225 9.15006C17.225 8.86673 17.1333 8.63339 16.95 8.45006C16.7667 8.26673 16.5333 8.17506 16.25 8.17506C15.9667 8.17506 15.7333 8.26673 15.55 8.45006L10.6 13.4001ZM5 21.0001C4.45 21.0001 3.97917 20.8042 3.5875 20.4126C3.19583 20.0209 3 19.5501 3 19.0001V5.00006C3 4.45006 3.19583 3.97923 3.5875 3.58756C3.97917 3.19589 4.45 3.00006 5 3.00006H19C19.55 3.00006 20.0208 3.19589 20.4125 3.58756C20.8042 3.97923 21 4.45006 21 5.00006V19.0001C21 19.5501 20.8042 20.0209 20.4125 20.4126C20.0208 20.8042 19.55 21.0001 19 21.0001H5Z" fill="#3B4CF2"/>
</g>
</svg>
