<svg width="24" height="24" viewBox="0 0 24 24" fill="none" xmlns="http://www.w3.org/2000/svg">
<mask id="mask0_56845_252" style="mask-type:alpha" maskUnits="userSpaceOnUse" x="0" y="0" width="24" height="25">
<rect y="0.00012207" width="24" height="24" fill="#D9D9D9"/>
</mask>
<g mask="url(#mask0_56845_252)">
<path d="M15 20.0001C12.7667 20.0001 10.875 19.2251 9.325 17.6751C7.775 16.1251 7 14.2335 7 12.0001C7 9.78346 7.775 7.89596 9.325 6.33762C10.875 4.77929 12.7667 4.00012 15 4.00012C17.2167 4.00012 19.1042 4.77929 20.6625 6.33762C22.2208 7.89596 23 9.78346 23 12.0001C23 14.2335 22.2208 16.1251 20.6625 17.6751C19.1042 19.2251 17.2167 20.0001 15 20.0001ZM15 18.0001C16.6667 18.0001 18.0833 17.4168 19.25 16.2501C20.4167 15.0835 21 13.6668 21 12.0001C21 10.3335 20.4167 8.91679 19.25 7.75012C18.0833 6.58346 16.6667 6.00012 15 6.00012C13.3333 6.00012 11.9167 6.58346 10.75 7.75012C9.58333 8.91679 9 10.3335 9 12.0001C9 13.6668 9.58333 15.0835 10.75 16.2501C11.9167 17.4168 13.3333 18.0001 15 18.0001ZM16 11.6001V9.00012C16 8.71679 15.9042 8.47929 15.7125 8.28762C15.5208 8.09596 15.2833 8.00012 15 8.00012C14.7167 8.00012 14.4792 8.09596 14.2875 8.28762C14.0958 8.47929 14 8.71679 14 9.00012V12.0251C14 12.1585 14.0292 12.2876 14.0875 12.4126C14.1458 12.5376 14.2167 12.6418 14.3 12.7251L16.575 15.0001C16.775 15.2001 17.0125 15.3001 17.2875 15.3001C17.5625 15.3001 17.8 15.2001 18 15.0001C18.2 14.8001 18.3 14.5626 18.3 14.2876C18.3 14.0126 18.2 13.7751 18 13.5751L16 11.6001ZM3 9.00012C2.71667 9.00012 2.47917 8.90429 2.2875 8.71262C2.09583 8.52096 2 8.28346 2 8.00012C2 7.71679 2.09583 7.47929 2.2875 7.28762C2.47917 7.09596 2.71667 7.00012 3 7.00012H5C5.28333 7.00012 5.52083 7.09596 5.7125 7.28762C5.90417 7.47929 6 7.71679 6 8.00012C6 8.28346 5.90417 8.52096 5.7125 8.71262C5.52083 8.90429 5.28333 9.00012 5 9.00012H3ZM2 13.0001C1.71667 13.0001 1.47917 12.9043 1.2875 12.7126C1.09583 12.521 1 12.2835 1 12.0001C1 11.7168 1.09583 11.4793 1.2875 11.2876C1.47917 11.096 1.71667 11.0001 2 11.0001H5C5.28333 11.0001 5.52083 11.096 5.7125 11.2876C5.90417 11.4793 6 11.7168 6 12.0001C6 12.2835 5.90417 12.521 5.7125 12.7126C5.52083 12.9043 5.28333 13.0001 5 13.0001H2ZM3 17.0001C2.71667 17.0001 2.47917 16.9043 2.2875 16.7126C2.09583 16.521 2 16.2835 2 16.0001C2 15.7168 2.09583 15.4793 2.2875 15.2876C2.47917 15.096 2.71667 15.0001 3 15.0001H5C5.28333 15.0001 5.52083 15.096 5.7125 15.2876C5.90417 15.4793 6 15.7168 6 16.0001C6 16.2835 5.90417 16.521 5.7125 16.7126C5.52083 16.9043 5.28333 17.0001 5 17.0001H3Z" fill="#090F1F"/>
</g>
</svg>
