<svg width="24" height="24" viewBox="0 0 24 24" fill="none" xmlns="http://www.w3.org/2000/svg">
<mask id="mask0_56845_267" style="mask-type:alpha" maskUnits="userSpaceOnUse" x="0" y="0" width="24" height="25">
<rect y="0.00012207" width="24" height="24" fill="#D9D9D9"/>
</mask>
<g mask="url(#mask0_56845_267)">
<path d="M12 22.0001C10.6167 22.0001 9.31667 21.7376 8.1 21.2126C6.88333 20.6876 5.825 19.9751 4.925 19.0751C4.025 18.1751 3.3125 17.1168 2.7875 15.9001C2.2625 14.6835 2 13.3835 2 12.0001C2 10.6168 2.2625 9.31679 2.7875 8.10012C3.3125 6.88346 4.025 5.82512 4.925 4.92512C5.825 4.02512 6.88333 3.31262 8.1 2.78762C9.31667 2.26262 10.6167 2.00012 12 2.00012C13.3833 2.00012 14.6833 2.26262 15.9 2.78762C17.1167 3.31262 18.175 4.02512 19.075 4.92512C19.975 5.82512 20.6875 6.88346 21.2125 8.10012C21.7375 9.31679 22 10.6168 22 12.0001C22 13.3835 21.7375 14.6835 21.2125 15.9001C20.6875 17.1168 19.975 18.1751 19.075 19.0751C18.175 19.9751 17.1167 20.6876 15.9 21.2126C14.6833 21.7376 13.3833 22.0001 12 22.0001ZM12 20.0001C14.2333 20.0001 16.125 19.2251 17.675 17.6751C19.225 16.1251 20 14.2335 20 12.0001C20 11.8835 19.9958 11.7626 19.9875 11.6376C19.9792 11.5126 19.975 11.4085 19.975 11.3251C19.8917 11.8085 19.6667 12.2085 19.3 12.5251C18.9333 12.8418 18.5 13.0001 18 13.0001H16C15.45 13.0001 14.9792 12.8043 14.5875 12.4126C14.1958 12.021 14 11.5501 14 11.0001V10.0001H10V8.00012C10 7.45012 10.1958 6.97929 10.5875 6.58762C10.9792 6.19596 11.45 6.00012 12 6.00012H13C13 5.61679 13.1042 5.27929 13.3125 4.98762C13.5208 4.69596 13.775 4.45846 14.075 4.27512C13.7417 4.19179 13.4042 4.12512 13.0625 4.07512C12.7208 4.02512 12.3667 4.00012 12 4.00012C9.76667 4.00012 7.875 4.77512 6.325 6.32512C4.775 7.87512 4 9.76679 4 12.0001H9C10.1 12.0001 11.0417 12.3918 11.825 13.1751C12.6083 13.9585 13 14.9001 13 16.0001V17.0001H10V19.7501C10.3333 19.8335 10.6625 19.896 10.9875 19.9376C11.3125 19.9793 11.65 20.0001 12 20.0001Z" fill="#1C1B1F"/>
</g>
</svg>
