<svg width="24" height="24" viewBox="0 0 24 24" fill="none" xmlns="http://www.w3.org/2000/svg">
<mask id="mask0_56845_240" style="mask-type:alpha" maskUnits="userSpaceOnUse" x="0" y="0" width="24" height="25">
<rect y="0.00012207" width="24" height="24" fill="#D9D9D9"/>
</mask>
<g mask="url(#mask0_56845_240)">
<path d="M5 21.0001C4.45 21.0001 3.97917 20.8043 3.5875 20.4126C3.19583 20.021 3 19.5501 3 19.0001V5.00012C3 4.45012 3.19583 3.97929 3.5875 3.58762C3.97917 3.19596 4.45 3.00012 5 3.00012H19C19.55 3.00012 20.0208 3.19596 20.4125 3.58762C20.8042 3.97929 21 4.45012 21 5.00012V19.0001C21 19.5501 20.8042 20.021 20.4125 20.4126C20.0208 20.8043 19.55 21.0001 19 21.0001H5ZM5 19.0001H19V5.00012H5V19.0001Z" fill="#090F1F"/>
</g>
</svg>
