<svg width="24" height="24" viewBox="0 0 24 24" fill="none" xmlns="http://www.w3.org/2000/svg">
<mask id="mask0_56845_257" style="mask-type:alpha" maskUnits="userSpaceOnUse" x="0" y="0" width="24" height="25">
<rect y="0.00012207" width="24" height="24" fill="#D9D9D9"/>
</mask>
<g mask="url(#mask0_56845_257)">
<path d="M7.975 18.2501C7.80833 17.7668 7.65417 17.2751 7.5125 16.7751C7.37083 16.2751 7.25833 15.7751 7.175 15.2751L6 16.0751V19.0501L7.975 18.2501ZM11.65 4.87513C10.85 5.72513 10.2083 6.84597 9.725 8.23763C9.24167 9.6293 9 11.0918 9 12.6251C9 13.6251 9.09167 14.6043 9.275 15.5626C9.45833 16.521 9.7 17.3335 10 18.0001H14C14.3 17.3335 14.5417 16.521 14.725 15.5626C14.9083 14.6043 15 13.6251 15 12.6251C15 11.0918 14.7583 9.6293 14.275 8.23763C13.7917 6.84597 13.15 5.72513 12.35 4.87513C12.3 4.82513 12.2458 4.78763 12.1875 4.76263C12.1292 4.73763 12.0667 4.72513 12 4.72513C11.9333 4.72513 11.8708 4.73763 11.8125 4.76263C11.7542 4.78763 11.7 4.82513 11.65 4.87513ZM12 13.0001C11.45 13.0001 10.9792 12.8043 10.5875 12.4126C10.1958 12.021 10 11.5501 10 11.0001C10 10.4501 10.1958 9.9793 10.5875 9.58763C10.9792 9.19597 11.45 9.00013 12 9.00013C12.55 9.00013 13.0208 9.19597 13.4125 9.58763C13.8042 9.9793 14 10.4501 14 11.0001C14 11.5501 13.8042 12.021 13.4125 12.4126C13.0208 12.8043 12.55 13.0001 12 13.0001ZM16.025 18.2501L18 19.0501V16.0751L16.825 15.2751C16.7417 15.7751 16.6292 16.2751 16.4875 16.7751C16.3458 17.2751 16.1917 17.7668 16.025 18.2501ZM12.775 2.60013C14.175 3.80013 15.2292 5.27513 15.9375 7.02513C16.6458 8.77513 17 10.7668 17 13.0001L19.1 14.4001C19.3833 14.5835 19.6042 14.8251 19.7625 15.1251C19.9208 15.4251 20 15.7418 20 16.0751V20.5251C20 20.8751 19.8542 21.1501 19.5625 21.3501C19.2708 21.5501 18.9583 21.5835 18.625 21.4501L15.025 20.0001H8.975L5.375 21.4501C5.04167 21.5835 4.72917 21.5501 4.4375 21.3501C4.14583 21.1501 4 20.8751 4 20.5251V16.0751C4 15.7418 4.07917 15.4251 4.2375 15.1251C4.39583 14.8251 4.61667 14.5835 4.9 14.4001L7 13.0001C7 10.7668 7.35417 8.77513 8.0625 7.02513C8.77083 5.27513 9.825 3.80013 11.225 2.60013C11.3417 2.5168 11.4667 2.45013 11.6 2.40013C11.7333 2.35013 11.8667 2.32513 12 2.32513C12.1333 2.32513 12.2667 2.35013 12.4 2.40013C12.5333 2.45013 12.6583 2.5168 12.775 2.60013Z" fill="#090F1F"/>
</g>
</svg>
