<svg width="24" height="24" viewBox="0 0 24 24" fill="none" xmlns="http://www.w3.org/2000/svg">
<mask id="mask0_56845_272" style="mask-type:alpha" maskUnits="userSpaceOnUse" x="0" y="0" width="24" height="25">
<rect y="0.00012207" width="24" height="24" fill="#D9D9D9"/>
</mask>
<g mask="url(#mask0_56845_272)">
<path d="M12 11.9251L10.3 13.2251C10.2 13.3085 10.1 13.3126 10 13.2376C9.9 13.1626 9.86667 13.0668 9.9 12.9501L10.55 10.8501L8.8 9.45012C8.71667 9.36679 8.69167 9.27096 8.725 9.16262C8.75833 9.05429 8.83333 9.00012 8.95 9.00012H11.1L11.75 6.95012C11.7833 6.83346 11.8667 6.77512 12 6.77512C12.1333 6.77512 12.2167 6.83346 12.25 6.95012L12.9 9.00012H15.025C15.1417 9.00012 15.2208 9.05429 15.2625 9.16262C15.3042 9.27096 15.2833 9.36679 15.2 9.45012L13.425 10.8501L14.075 12.9501C14.1083 13.0668 14.075 13.1626 13.975 13.2376C13.875 13.3126 13.775 13.3085 13.675 13.2251L12 11.9251ZM12 21.0001L7.325 22.5501C6.99167 22.6668 6.6875 22.6251 6.4125 22.4251C6.1375 22.2251 6 21.9585 6 21.6251V15.2751C5.36667 14.5751 4.875 13.7751 4.525 12.8751C4.175 11.9751 4 11.0168 4 10.0001C4 7.76679 4.775 5.87512 6.325 4.32512C7.875 2.77512 9.76667 2.00012 12 2.00012C14.2333 2.00012 16.125 2.77512 17.675 4.32512C19.225 5.87512 20 7.76679 20 10.0001C20 11.0168 19.825 11.9751 19.475 12.8751C19.125 13.7751 18.6333 14.5751 18 15.2751V21.6251C18 21.9585 17.8625 22.2251 17.5875 22.4251C17.3125 22.6251 17.0083 22.6668 16.675 22.5501L12 21.0001ZM12 16.0001C13.6667 16.0001 15.0833 15.4168 16.25 14.2501C17.4167 13.0835 18 11.6668 18 10.0001C18 8.33346 17.4167 6.91679 16.25 5.75012C15.0833 4.58346 13.6667 4.00012 12 4.00012C10.3333 4.00012 8.91667 4.58346 7.75 5.75012C6.58333 6.91679 6 8.33346 6 10.0001C6 11.6668 6.58333 13.0835 7.75 14.2501C8.91667 15.4168 10.3333 16.0001 12 16.0001ZM8 20.0251L12 19.0001L16 20.0251V16.9251C15.4167 17.2585 14.7875 17.521 14.1125 17.7126C13.4375 17.9043 12.7333 18.0001 12 18.0001C11.2667 18.0001 10.5625 17.9043 9.8875 17.7126C9.2125 17.521 8.58333 17.2585 8 16.9251V20.0251Z" fill="#1C1B1F"/>
</g>
</svg>
